<svg width="122" height="293" viewBox="0 0 122 293" fill="none" xmlns="http://www.w3.org/2000/svg">
<g filter="url(#filter0_d_20_23)">
<path d="M4.13 59.5C19.71 53.4867 34.88 45.8333 49.64 36.54C64.4 26.9733 77.93 15.0833 90.23 0.869992H117.29V285H79.16V53.76C75.88 56.7667 71.78 59.91 66.86 63.19C62.2133 66.47 57.02 69.6133 51.28 72.62C45.8133 75.6267 39.9367 78.4967 33.65 81.23C27.6367 83.9633 21.76 86.2867 16.02 88.2L4.13 59.5Z" fill="black"/>
<path d="M4.13 59.5L3.76993 58.5671L2.81395 58.936L3.20614 59.8827L4.13 59.5ZM49.64 36.54L50.1729 37.3863L50.1839 37.3792L49.64 36.54ZM90.23 0.869992V-0.130008H89.7729L89.4738 0.215616L90.23 0.869992ZM117.29 0.869992H118.29V-0.130008H117.29V0.869992ZM117.29 285V286H118.29V285H117.29ZM79.16 285H78.16V286H79.16V285ZM79.16 53.76H80.16V51.4868L78.4843 53.0228L79.16 53.76ZM66.86 63.19L66.3053 62.3579L66.2942 62.3653L66.2833 62.373L66.86 63.19ZM51.28 72.62L50.816 71.7342L50.807 71.7389L50.7981 71.7438L51.28 72.62ZM33.65 81.23L33.2513 80.3129L33.2437 80.3162L33.2362 80.3196L33.65 81.23ZM16.02 88.2L15.0961 88.5827L15.4526 89.4432L16.3362 89.1487L16.02 88.2ZM4.49008 60.4329C20.1329 54.3953 35.3606 46.7124 50.1728 37.3862L49.1072 35.6938C34.3994 44.9542 19.2871 52.578 3.76993 58.5671L4.49008 60.4329ZM50.1839 37.3792C65.0283 27.7578 78.6287 15.8041 90.9862 1.52437L89.4738 0.215616C77.2313 14.3625 63.7718 26.1888 49.0961 35.7008L50.1839 37.3792ZM90.23 1.86999H117.29V-0.130008H90.23V1.86999ZM116.29 0.869992V285H118.29V0.869992H116.29ZM117.29 284H79.16V286H117.29V284ZM80.16 285V53.76H78.16V285H80.16ZM78.4843 53.0228C75.2521 55.9857 71.1956 59.0978 66.3053 62.3579L67.4147 64.022C72.3644 60.7222 76.5079 57.5477 79.8357 54.4972L78.4843 53.0228ZM66.2833 62.373C61.6772 65.6244 56.5222 68.7452 50.816 71.7342L51.744 73.5058C57.5178 70.4815 62.7495 67.3156 67.4367 64.007L66.2833 62.373ZM50.7981 71.7438C45.361 74.7342 39.5123 77.5907 33.2513 80.3129L34.0487 82.1471C40.361 79.4026 46.2657 76.5191 51.7619 73.4962L50.7981 71.7438ZM33.2362 80.3196C27.2518 83.0398 21.4078 85.35 15.7038 87.2513L16.3362 89.1487C22.1123 87.2233 28.0215 84.8869 34.0638 82.1404L33.2362 80.3196ZM16.9439 87.8173L5.05386 59.1173L3.20614 59.8827L15.0961 88.5827L16.9439 87.8173Z" fill="black"/>
</g>
<defs>
<filter id="filter0_d_20_23" x="0.130005" y="0.869995" width="121.16" height="292.13" filterUnits="userSpaceOnUse" color-interpolation-filters="sRGB">
<feFlood flood-opacity="0" result="BackgroundImageFix"/>
<feColorMatrix in="SourceAlpha" type="matrix" values="0 0 0 0 0 0 0 0 0 0 0 0 0 0 0 0 0 0 127 0" result="hardAlpha"/>
<feOffset dy="4"/>
<feGaussianBlur stdDeviation="2"/>
<feComposite in2="hardAlpha" operator="out"/>
<feColorMatrix type="matrix" values="0 0 0 0 0 0 0 0 0 0 0 0 0 0 0 0 0 0 0.25 0"/>
<feBlend mode="normal" in2="BackgroundImageFix" result="effect1_dropShadow_20_23"/>
<feBlend mode="normal" in="SourceGraphic" in2="effect1_dropShadow_20_23" result="shape"/>
</filter>
</defs>
</svg>
