<svg width="109" height="74" viewBox="0 0 109 74" fill="none" xmlns="http://www.w3.org/2000/svg">
<g filter="url(#filter0_d_86_43)">
<path d="M100.106 60.0932L100.086 60.1443C98.7403 63.2734 95.5275 65.5 91.7338 65.5H8.98312C8.86348 65.5 8.74151 65.4867 8.59865 65.4667C8.5681 65.4624 8.53557 65.4577 8.50156 65.4527C8.38712 65.436 8.25588 65.4169 8.12681 65.4051L8.1042 65.4031H8.08151H8.02937C8.00471 65.3962 7.97074 65.3883 7.93001 65.3836L7.92915 65.3835C6.09338 65.1776 4.44172 64.4736 3.11755 63.3919L2.91732 63.2179C2.85123 63.1605 2.78679 63.1052 2.72401 63.0514C2.44807 62.8147 2.20424 62.6056 1.9929 62.3614L1.99285 62.3613C1.39799 61.6741 0.913779 60.897 0.56509 60.0564C0.617934 60.0001 0.68856 59.9296 0.779178 59.8438C1.06651 59.572 1.50694 59.1926 2.08545 58.7171C3.23979 57.7683 4.91348 56.4619 6.93813 54.917C10.9859 51.8285 16.4195 47.7997 21.8671 43.7995C27.3141 39.7997 32.7729 35.83 36.87 32.8601C38.9186 31.3752 40.6266 30.1403 41.8225 29.2767C42.4205 28.8449 42.8904 28.5059 43.2108 28.2749L43.5765 28.0112L43.6703 27.9436L43.694 27.9265L43.7 27.9222L43.7015 27.9212C43.7018 27.9209 43.702 27.9208 43.411 27.5167L43.702 27.9208L43.7026 27.9204C46.3942 25.9758 48.3636 25.0905 50.2854 25.0975C52.2098 25.1045 54.1955 26.0062 56.9203 27.9225C56.9211 27.923 56.9218 27.9235 56.9225 27.924L56.9261 27.9266L56.9498 27.9437L57.0437 28.0113L57.41 28.2752C57.7309 28.5065 58.2015 28.8457 58.8003 29.2779C59.9979 30.1423 61.7084 31.3782 63.7598 32.8644C67.8627 35.8368 73.329 39.8101 78.7832 43.814C84.2379 47.8182 89.6782 51.8514 93.73 54.9442C95.7567 56.4912 97.4317 57.7996 98.5864 58.7502C99.1651 59.2267 99.6053 59.6069 99.8922 59.8794C99.9831 59.9658 100.054 60.0367 100.106 60.0932ZM8.0823 65.4197C8.0823 65.4197 8.08205 65.4197 8.08151 65.4195L8.0823 65.4197Z" fill="#96A9B2" stroke="black"/>
<path d="M50.6613 23.4877L50.3705 23.2799L50.0797 23.4877L0.731445 58.7639V8.96041C0.731445 4.30974 4.69322 0.5 9.63253 0.5H91.1085C96.0478 0.5 100.01 4.30974 100.01 8.96041V58.7639L50.6613 23.4877Z" fill="#B9C5C6" stroke="black"/>
<path d="M1.35782 5.86195L1.37072 5.82874C2.69181 2.74428 5.85565 0.547974 9.5927 0.547974H91.0682C91.1854 0.547974 91.3051 0.561043 91.4457 0.580683C91.4758 0.584882 91.5078 0.589554 91.5414 0.594443C91.654 0.610869 91.7835 0.629741 91.9107 0.641332L91.9334 0.643394H91.9561H92.0064C92.0305 0.650027 92.0636 0.657772 92.1032 0.662372L92.1051 0.662584C93.909 0.865039 95.5325 1.55625 96.8341 2.61835L97.0353 2.79317C97.1 2.84936 97.1631 2.90344 97.2245 2.9561C97.4966 3.1895 97.7366 3.39526 97.9445 3.63568L97.9446 3.63578C98.5285 4.31058 99.0042 5.07331 99.3471 5.89813C99.2956 5.95279 99.2272 6.02103 99.1399 6.10363C98.8572 6.37109 98.4237 6.74454 97.8542 7.21268C96.7177 8.14674 95.0699 9.43293 93.0765 10.954C89.0911 13.9949 83.7413 17.9615 78.3777 21.9001C73.0147 25.8383 67.6401 29.7468 63.6061 32.6708C61.5891 34.1329 59.9074 35.3487 58.7299 36.199C58.1412 36.6242 57.6786 36.958 57.3631 37.1854L57.003 37.445L56.9106 37.5116L56.8873 37.5284L56.8814 37.5326L56.88 37.5337C56.8796 37.5339 56.8795 37.534 57.1711 37.9389L56.8795 37.534L56.8788 37.5345C54.229 39.4489 52.2917 40.3193 50.4021 40.3124C48.5098 40.3055 46.5564 39.4189 43.8738 37.5324C43.8731 37.5319 43.8723 37.5313 43.8715 37.5308L43.8681 37.5283L43.8447 37.5115L43.7523 37.4449L43.3916 37.1851C43.0757 36.9574 42.6124 36.6233 42.0228 36.1978C40.8437 35.3468 39.1595 34.1299 37.1397 32.6666C33.1 29.74 27.718 25.828 22.3479 21.8858C16.9773 17.9433 11.6209 13.9723 7.63158 10.9272C5.63615 9.40407 3.98707 8.11589 2.85029 7.17998C2.28054 6.7109 1.84726 6.33667 1.56502 6.06854C1.47747 5.98536 1.40912 5.91678 1.35782 5.86195ZM99.5359 6.27035C99.5372 6.27165 99.5361 6.27056 99.5349 6.2692L99.5359 6.27035Z" fill="#DCE2E2" stroke="black"/>
</g>
<defs>
<filter id="filter0_d_86_43" x="0" y="0" width="108.689" height="74" filterUnits="userSpaceOnUse" color-interpolation-filters="sRGB">
<feFlood flood-opacity="0" result="BackgroundImageFix"/>
<feColorMatrix in="SourceAlpha" type="matrix" values="0 0 0 0 0 0 0 0 0 0 0 0 0 0 0 0 0 0 127 0" result="hardAlpha"/>
<feOffset dx="4" dy="4"/>
<feGaussianBlur stdDeviation="2"/>
<feComposite in2="hardAlpha" operator="out"/>
<feColorMatrix type="matrix" values="0 0 0 0 0 0 0 0 0 0 0 0 0 0 0 0 0 0 0.25 0"/>
<feBlend mode="normal" in2="BackgroundImageFix" result="effect1_dropShadow_86_43"/>
<feBlend mode="normal" in="SourceGraphic" in2="effect1_dropShadow_86_43" result="shape"/>
</filter>
</defs>
</svg>
