<svg width="94" height="94" viewBox="0 0 94 94" fill="none" xmlns="http://www.w3.org/2000/svg">
<g filter="url(#filter0_d_86_47)">
<mask id="path-1-inside-1_86_47" fill="white">
<path d="M79.6287 0.00641264H6.34604C2.88254 -0.0326737 0.04227 2.74172 0 6.20525V79.7935C0.0408228 83.2587 2.88087 86.0359 6.34604 85.9995H79.6287C83.1008 86.0425 85.9519 83.2656 86 79.7935V6.19994C85.9505 2.72957 83.0991 -0.0446669 79.6287 0.00054485"/>
</mask>
<path d="M79.6287 0.00641264H6.34604C2.88254 -0.0326737 0.04227 2.74172 0 6.20525V79.7935C0.0408228 83.2587 2.88087 86.0359 6.34604 85.9995H79.6287C83.1008 86.0425 85.9519 83.2656 86 79.7935V6.19994C85.9505 2.72957 83.0991 -0.0446669 79.6287 0.00054485" fill="#0A66C2"/>
<path d="M6.34604 0.00641264L6.33475 1.00641H6.34604V0.00641264ZM0 6.20525L-1 6.19304V6.20525H0ZM0 79.7935L-1.00007 79.7935L-0.999931 79.8053L0 79.7935ZM6.34604 85.9995L6.34604 84.9994L6.33554 84.9996L6.34604 85.9995ZM79.6287 85.9995L79.6411 84.9995H79.6287V85.9995ZM86 79.7935L87 79.8074V79.7935H86ZM86 6.19994H87V6.19281L86.9999 6.18567L86 6.19994ZM79.6287 -0.993587H6.34604V1.00641H79.6287V-0.993587ZM6.35732 -0.993524C2.34192 -1.03884 -0.95092 2.17765 -0.999926 6.19305L0.999926 6.21745C1.03546 3.30579 3.42317 0.973491 6.33475 1.00635L6.35732 -0.993524ZM-1 6.20525V79.7935H1V6.20525H-1ZM-0.999931 79.8053C-0.952607 83.8223 2.33967 87.0416 6.35653 86.9994L6.33554 84.9996C3.42206 85.0301 1.03425 82.6951 0.999931 79.7817L-0.999931 79.8053ZM6.34604 86.9995H79.6287V84.9995H6.34604V86.9995ZM79.6164 86.9994C83.64 87.0493 86.9442 83.8311 86.9999 79.8074L85.0001 79.7797C84.9597 82.7 82.5616 85.0358 79.6411 84.9996L79.6164 86.9994ZM87 79.7935V6.19994H85V79.7935H87ZM86.9999 6.18567C86.9425 2.16348 83.6378 -1.05177 79.6157 -0.99937L79.6418 1.00046C82.5604 0.962436 84.9585 3.29565 85.0001 6.2142L86.9999 6.18567Z" fill="black" mask="url(#path-1-inside-1_86_47)"/>
<path d="M60.5336 73.2775H73.2761L73.2814 50.7652C73.2814 39.7135 70.9001 31.2183 57.985 31.2183C53.0478 31.035 48.4098 33.5823 45.9155 37.8472H45.7443V32.239H33.5115V73.2761H46.254V52.9753C46.254 47.622 47.2694 42.4373 53.9061 42.4373C60.4486 42.4373 60.5336 48.5631 60.5336 53.3217V73.2775Z" fill="white"/>
<path d="M11.7377 19.2361C11.7384 23.3201 15.0497 26.6303 19.1337 26.6296C21.0948 26.6292 22.9756 25.8498 24.3621 24.4627C25.7486 23.0757 26.5273 21.1947 26.527 19.2334C26.5262 15.1494 23.2149 11.8392 19.131 11.84C15.0471 11.8407 11.737 15.1521 11.7377 19.2361Z" fill="white"/>
<path d="M12.7491 73.2775H25.5049V32.239H12.7491V73.2775Z" fill="white"/>
</g>
<defs>
<filter id="filter0_d_86_47" x="0" y="0" width="94" height="94" filterUnits="userSpaceOnUse" color-interpolation-filters="sRGB">
<feFlood flood-opacity="0" result="BackgroundImageFix"/>
<feColorMatrix in="SourceAlpha" type="matrix" values="0 0 0 0 0 0 0 0 0 0 0 0 0 0 0 0 0 0 127 0" result="hardAlpha"/>
<feOffset dx="4" dy="4"/>
<feGaussianBlur stdDeviation="2"/>
<feComposite in2="hardAlpha" operator="out"/>
<feColorMatrix type="matrix" values="0 0 0 0 0 0 0 0 0 0 0 0 0 0 0 0 0 0 0.25 0"/>
<feBlend mode="normal" in2="BackgroundImageFix" result="effect1_dropShadow_86_47"/>
<feBlend mode="normal" in="SourceGraphic" in2="effect1_dropShadow_86_47" result="shape"/>
</filter>
</defs>
</svg>
