<svg width="30" height="40" viewBox="0 0 176 232" fill="none" xmlns="http://www.w3.org/2000/svg">
<mask id="path-1-inside-1_972_53" fill="white">
<path fill-rule="evenodd" clip-rule="evenodd" d="M114.559 25.6622C110.323 24.9422 96.3676 22.4575 83.5478 20.1409C65.4607 16.873 60.3979 16.1069 60.9479 16.7217C61.3378 17.1576 70.8665 27.405 82.1233 39.4932L102.589 61.4722L132.957 66.7359C149.66 69.6308 164.056 72.1051 164.948 72.2349C166.523 72.4629 166.275 72.1581 156.73 62.0977C151.317 56.3931 142.061 46.5955 136.162 40.3251C130.262 34.0548 124.721 28.4852 123.848 27.9479C122.737 27.2645 119.951 26.5787 114.559 25.6622ZM153.219 71.2363L152.076 71.0866L145.787 81.1235C139.811 90.6615 139.453 91.1493 138.597 90.9329C138.102 90.8076 137.098 90.9827 136.368 91.3223C134.631 92.1296 134.115 93.8112 135.116 95.3999L135.886 96.6206L131.608 100.592L127.33 104.564L131.424 106.742C133.676 107.94 135.577 108.826 135.649 108.711C135.721 108.596 136.44 106.24 137.248 103.474L138.716 98.4474L140.59 98.1404C141.825 97.9383 142.683 97.4849 143.105 96.8119C143.935 95.487 143.737 93.5341 142.718 92.9918C141.944 92.5801 142.139 92.2107 148.464 82.1164C152.065 76.3694 154.865 71.6043 154.687 71.5266C154.508 71.4493 153.848 71.3191 153.219 71.2363ZM69.0631 44.7434C63.2979 53.9444 62.6935 55.0556 63.3997 55.1588C65.5512 55.473 73.833 58.327 79.8236 60.8188C88.7485 64.5306 106.603 74.0287 114.554 79.2946C119.891 82.8291 126.714 88.0108 128.085 89.5705C128.535 90.0825 129.277 89.0446 135.043 79.8436C138.742 73.9393 141.337 69.4589 141.123 69.345C140.917 69.2355 132.189 67.6699 121.726 65.8659C111.264 64.0618 102.423 62.4361 102.078 62.2529C101.734 62.0697 95.7853 55.8273 88.8586 48.3807C81.9319 40.9341 76.0962 34.7518 75.8904 34.6423C75.6764 34.5285 72.7627 38.8391 69.0631 44.7434Z"/>
</mask>
<path fill-rule="evenodd" clip-rule="evenodd" d="M114.559 25.6622C110.323 24.9422 96.3676 22.4575 83.5478 20.1409C65.4607 16.873 60.3979 16.1069 60.9479 16.7217C61.3378 17.1576 70.8665 27.405 82.1233 39.4932L102.589 61.4722L132.957 66.7359C149.66 69.6308 164.056 72.1051 164.948 72.2349C166.523 72.4629 166.275 72.1581 156.73 62.0977C151.317 56.3931 142.061 46.5955 136.162 40.3251C130.262 34.0548 124.721 28.4852 123.848 27.9479C122.737 27.2645 119.951 26.5787 114.559 25.6622ZM153.219 71.2363L152.076 71.0866L145.787 81.1235C139.811 90.6615 139.453 91.1493 138.597 90.9329C138.102 90.8076 137.098 90.9827 136.368 91.3223C134.631 92.1296 134.115 93.8112 135.116 95.3999L135.886 96.6206L131.608 100.592L127.33 104.564L131.424 106.742C133.676 107.94 135.577 108.826 135.649 108.711C135.721 108.596 136.44 106.24 137.248 103.474L138.716 98.4474L140.59 98.1404C141.825 97.9383 142.683 97.4849 143.105 96.8119C143.935 95.487 143.737 93.5341 142.718 92.9918C141.944 92.5801 142.139 92.2107 148.464 82.1164C152.065 76.3694 154.865 71.6043 154.687 71.5266C154.508 71.4493 153.848 71.3191 153.219 71.2363ZM69.0631 44.7434C63.2979 53.9444 62.6935 55.0556 63.3997 55.1588C65.5512 55.473 73.833 58.327 79.8236 60.8188C88.7485 64.5306 106.603 74.0287 114.554 79.2946C119.891 82.8291 126.714 88.0108 128.085 89.5705C128.535 90.0825 129.277 89.0446 135.043 79.8436C138.742 73.9393 141.337 69.4589 141.123 69.345C140.917 69.2355 132.189 67.6699 121.726 65.8659C111.264 64.0618 102.423 62.4361 102.078 62.2529C101.734 62.0697 95.7853 55.8273 88.8586 48.3807C81.9319 40.9341 76.0962 34.7518 75.8904 34.6423C75.6764 34.5285 72.7627 38.8391 69.0631 44.7434Z" fill="#40515D" stroke="black" stroke-width="4" mask="url(#path-1-inside-1_972_53)"/>
<mask id="path-2-inside-2_972_53" fill="white">
<path fill-rule="evenodd" clip-rule="evenodd" d="M45.8891 69.9788C41.3619 71.0837 33.3763 73.752 32.849 74.3361C32.718 74.4807 31.2177 75.2721 29.5149 76.0938C27.8121 76.9154 26.0703 77.9019 25.644 78.286C25.2177 78.67 24.2665 79.3786 23.5311 79.8608C20.1865 82.0531 19.3025 82.8063 15.143 87.0074C10.5034 91.6935 6.15283 98.2885 3.66035 104.414C-1.40987 116.874 -1.20173 131.476 4.21619 143.435C5.15831 145.514 7.85465 150.505 8.36191 151.108C8.83202 151.667 21.4783 171.832 25.1339 177.852C25.7931 178.938 26.8338 180.562 27.4473 181.461C28.0607 182.361 28.5623 183.203 28.5623 183.333C28.5623 183.463 29.0967 184.349 29.7497 185.301C30.4027 186.253 32.5732 189.653 34.5727 192.856C36.5727 196.058 38.6417 199.369 39.1714 200.213C39.7006 201.057 40.7822 202.833 41.5748 204.159C44.6808 209.357 52.0568 221.101 52.9074 222.203C53.1243 222.795 53.6063 223.518 53.6063 223.727C53.6063 223.935 54.3401 224.847 54.9927 225.731C55.6447 226.615 56.8083 228.387 57.5775 229.669C58.3473 230.951 59.2336 232 59.5475 232C60.0786 232 62.652 228.309 64.592 224.766C65.054 223.922 66.5825 221.474 67.989 219.327C69.395 217.18 71.1373 214.418 71.8608 213.189C73.6913 210.08 75.2759 207.528 75.6984 207.009C75.8946 206.768 76.6977 205.485 77.4836 204.159C78.269 202.833 79.3573 201.057 79.9017 200.213C80.4457 199.369 82.1666 196.607 83.725 194.075C85.2839 191.543 87.9979 187.202 89.7569 184.429C91.5154 181.656 93.7168 178.105 94.649 176.537C95.5811 174.97 96.7051 173.194 97.1476 172.591C97.5896 171.988 98.2774 170.903 98.6751 170.18C99.0733 169.456 101.947 164.868 105.061 159.985C113.679 146.472 115.026 143.898 116.88 137.405C118.664 131.16 119.239 126.392 118.914 120.557C118.608 115.084 118.49 114.304 117.329 110.113C115.957 105.157 112.618 98.0202 109.74 93.891C106.827 89.7122 97.6339 80.5185 96.3684 80.5185C96.1288 80.5185 95.5782 80.173 95.1457 79.7512C93.9559 78.5911 93.0553 77.9611 91.0848 76.9106C90.0979 76.3844 89.1834 75.8439 89.0524 75.7092C88.5861 75.23 83.0487 72.8835 80.0027 71.8746C72.6686 69.4448 70.7763 69.1734 61.427 69.2067C56.5806 69.2243 52.1868 69.1401 51.6628 69.0199C51.1389 68.9003 48.5407 69.3317 45.8891 69.9788ZM63.5704 102.88C63.8323 103.054 64.8225 103.305 65.7713 103.439C68.9368 103.886 72.0685 105.568 75.2416 108.527C80.3938 113.332 82.249 118.117 81.7565 125.334C81.5464 128.413 81.1978 129.734 79.9622 132.13C79.1192 133.766 78.2475 135.17 78.0251 135.25C77.8032 135.331 77.6212 135.571 77.6212 135.784C77.6212 136.904 70.0481 142.339 68.4882 142.339C68.0538 142.339 67.627 142.534 67.5394 142.773C67.4522 143.012 65.6127 143.437 63.4513 143.718C55.1489 144.798 48.3716 142.725 42.7351 137.383C41.7949 136.491 41.1685 135.759 41.3429 135.756C41.5177 135.752 41.4281 135.604 41.1442 135.427C40.8608 135.25 39.9335 133.74 39.0842 132.074C37.8487 129.648 37.4886 128.291 37.2833 125.278C36.797 118.146 38.6584 113.36 43.8039 108.512C47.1004 105.405 49.7843 104.019 53.8905 103.303C55.2451 103.066 56.4721 102.764 56.6169 102.63C56.9917 102.285 62.9978 102.501 63.5704 102.88Z"/>
</mask>
<path fill-rule="evenodd" clip-rule="evenodd" d="M45.8891 69.9788C41.3619 71.0837 33.3763 73.752 32.849 74.3361C32.718 74.4807 31.2177 75.2721 29.5149 76.0938C27.8121 76.9154 26.0703 77.9019 25.644 78.286C25.2177 78.67 24.2665 79.3786 23.5311 79.8608C20.1865 82.0531 19.3025 82.8063 15.143 87.0074C10.5034 91.6935 6.15283 98.2885 3.66035 104.414C-1.40987 116.874 -1.20173 131.476 4.21619 143.435C5.15831 145.514 7.85465 150.505 8.36191 151.108C8.83202 151.667 21.4783 171.832 25.1339 177.852C25.7931 178.938 26.8338 180.562 27.4473 181.461C28.0607 182.361 28.5623 183.203 28.5623 183.333C28.5623 183.463 29.0967 184.349 29.7497 185.301C30.4027 186.253 32.5732 189.653 34.5727 192.856C36.5727 196.058 38.6417 199.369 39.1714 200.213C39.7006 201.057 40.7822 202.833 41.5748 204.159C44.6808 209.357 52.0568 221.101 52.9074 222.203C53.1243 222.795 53.6063 223.518 53.6063 223.727C53.6063 223.935 54.3401 224.847 54.9927 225.731C55.6447 226.615 56.8083 228.387 57.5775 229.669C58.3473 230.951 59.2336 232 59.5475 232C60.0786 232 62.652 228.309 64.592 224.766C65.054 223.922 66.5825 221.474 67.989 219.327C69.395 217.18 71.1373 214.418 71.8608 213.189C73.6913 210.08 75.2759 207.528 75.6984 207.009C75.8946 206.768 76.6977 205.485 77.4836 204.159C78.269 202.833 79.3573 201.057 79.9017 200.213C80.4457 199.369 82.1666 196.607 83.725 194.075C85.2839 191.543 87.9979 187.202 89.7569 184.429C91.5154 181.656 93.7168 178.105 94.649 176.537C95.5811 174.97 96.7051 173.194 97.1476 172.591C97.5896 171.988 98.2774 170.903 98.6751 170.18C99.0733 169.456 101.947 164.868 105.061 159.985C113.679 146.472 115.026 143.898 116.88 137.405C118.664 131.16 119.239 126.392 118.914 120.557C118.608 115.084 118.49 114.304 117.329 110.113C115.957 105.157 112.618 98.0202 109.74 93.891C106.827 89.7122 97.6339 80.5185 96.3684 80.5185C96.1288 80.5185 95.5782 80.173 95.1457 79.7512C93.9559 78.5911 93.0553 77.9611 91.0848 76.9106C90.0979 76.3844 89.1834 75.8439 89.0524 75.7092C88.5861 75.23 83.0487 72.8835 80.0027 71.8746C72.6686 69.4448 70.7763 69.1734 61.427 69.2067C56.5806 69.2243 52.1868 69.1401 51.6628 69.0199C51.1389 68.9003 48.5407 69.3317 45.8891 69.9788ZM63.5704 102.88C63.8323 103.054 64.8225 103.305 65.7713 103.439C68.9368 103.886 72.0685 105.568 75.2416 108.527C80.3938 113.332 82.249 118.117 81.7565 125.334C81.5464 128.413 81.1978 129.734 79.9622 132.13C79.1192 133.766 78.2475 135.17 78.0251 135.25C77.8032 135.331 77.6212 135.571 77.6212 135.784C77.6212 136.904 70.0481 142.339 68.4882 142.339C68.0538 142.339 67.627 142.534 67.5394 142.773C67.4522 143.012 65.6127 143.437 63.4513 143.718C55.1489 144.798 48.3716 142.725 42.7351 137.383C41.7949 136.491 41.1685 135.759 41.3429 135.756C41.5177 135.752 41.4281 135.604 41.1442 135.427C40.8608 135.25 39.9335 133.74 39.0842 132.074C37.8487 129.648 37.4886 128.291 37.2833 125.278C36.797 118.146 38.6584 113.36 43.8039 108.512C47.1004 105.405 49.7843 104.019 53.8905 103.303C55.2451 103.066 56.4721 102.764 56.6169 102.63C56.9917 102.285 62.9978 102.501 63.5704 102.88Z" fill="#C31212" stroke="#4A0E0E" stroke-width="6" mask="url(#path-2-inside-2_972_53)"/>
</svg>