<svg viewBox="0 0 59 46" fill="none" xmlns="http://www.w3.org/2000/svg">
<path d="M5.70046 13.4892V34.5746L8.88025 35.7681V36.3649H1.32825V35.7681L4.50804 34.5746V9.70975L2.12319 9.11299V8.51624H7.09162C8.46951 8.51624 9.55595 8.80799 10.3509 9.39148C11.1723 9.94845 11.8746 10.7839 12.4575 11.8979L21.1224 28.4877L27.7602 11.8979C28.2107 10.7309 28.8202 9.88216 29.5886 9.35169C30.3571 8.79472 31.5364 8.51624 33.1263 8.51624H37.2998V9.11299L34.9149 9.70975V35.1714L37.2998 35.7681V36.3649H25.9716V35.7681L28.3565 35.1714V13.4892L19.0158 36.7627H17.8234L5.70046 13.4892Z" fill="white"/>
<path d="M33.9716 35.7681L36.3564 35.1714V9.70975L33.9716 9.11299V8.51624H44.7033C48.7312 8.51624 51.6855 9.16605 53.567 10.4656C55.4749 11.7387 56.4288 13.4096 56.4288 15.4784C56.4288 16.9106 56.018 18.0643 55.1967 18.9396C54.3753 19.8148 53.3285 20.4646 52.0566 20.889C50.7052 21.3664 49.2479 21.6184 47.6844 21.6449V21.8438C49.6187 21.9234 51.3014 22.2151 52.7323 22.719C54.1896 23.1965 55.3954 23.9391 56.3493 24.9469C57.3297 25.9548 57.82 27.2411 57.82 28.806C57.82 31.1666 56.8527 33.023 54.9184 34.3757C52.9842 35.7019 49.8441 36.3649 45.4983 36.3649H33.9716V35.7681ZM44.7033 21.247C45.5778 21.247 46.3861 21.0083 47.1279 20.5309C47.8965 20.027 48.5057 19.3374 48.9563 18.4622C49.4333 17.5604 49.6718 16.5658 49.6718 15.4784C49.6718 14.3114 49.4333 13.277 48.9563 12.3753C48.5057 11.4735 47.8965 10.7706 47.1279 10.2667C46.3861 9.7628 45.5778 9.51083 44.7033 9.51083H42.9147V21.247H44.7033ZM45.4983 35.3703C47.1413 35.3703 48.4793 34.7869 49.5128 33.6198C50.5462 32.4527 51.0629 30.8482 51.0629 28.806C51.0629 26.7637 50.5462 25.1591 49.5128 23.9921C48.4793 22.8251 47.1413 22.2416 45.4983 22.2416H42.9147V35.3703H45.4983Z" fill="white"/>
</svg>
