<svg width="42" height="42" viewBox="0 0 42 42" fill="none" xmlns="http://www.w3.org/2000/svg">
<mask id="path-1-inside-1_331_379" fill="white">
<path d="M38.8885 0.00313175H3.09923C1.40775 -0.0159569 0.0206435 1.33898 0 3.03047V38.9689C0.0199367 40.6612 1.40694 42.0175 3.09923 41.9998H38.8885C40.5841 42.0208 41.9765 40.6646 42 38.9689V3.02788C41.9758 1.33304 40.5833 -0.021814 38.8885 0.000266089"/>
</mask>
<path d="M38.8885 0.00313175H3.09923C1.40775 -0.0159569 0.0206435 1.33898 0 3.03047V38.9689C0.0199367 40.6612 1.40694 42.0175 3.09923 41.9998H38.8885C40.5841 42.0208 41.9765 40.6646 42 38.9689V3.02788C41.9758 1.33304 40.5833 -0.021814 38.8885 0.000266089" fill="#0A66C2"/>
<path d="M3.09923 0.00313175L3.08794 1.00313H3.09923V0.00313175ZM0 3.03047L-1 3.01827V3.03047H0ZM0 38.9689H-1.00007L-0.999931 38.9807L0 38.9689ZM3.09923 41.9998V40.9997L3.08873 40.9998L3.09923 41.9998ZM38.8885 41.9998L38.9009 40.9998H38.8885V41.9998ZM42 38.9689L43 38.9828V38.9689H42ZM42 3.02788H43V3.02074L42.9999 3.01361L42 3.02788ZM38.8885 -0.996868H3.09923V1.00313H38.8885V-0.996868ZM3.11051 -0.996805C0.867127 -1.02212 -0.972547 0.774911 -0.999926 3.01827L0.999926 3.04267C1.01383 1.90305 1.94838 0.990208 3.08794 1.00307L3.11051 -0.996805ZM-1 3.03047V38.9689H1V3.03047H-1ZM-0.999931 38.9807C-0.973493 41.2248 0.86574 43.0232 3.10972 42.9997L3.08873 40.9998C1.94813 41.0118 1.01337 40.0976 0.999931 38.9572L-0.999931 38.9807ZM3.09923 42.9998H38.8885V40.9998H3.09923V42.9998ZM38.8761 42.9997C41.1233 43.0275 42.9688 41.2302 42.9999 38.9828L41.0001 38.9551C40.9843 40.099 40.0449 41.014 38.9009 40.9998L38.8761 42.9997ZM43 38.9689V3.02788H41V38.9689H43ZM42.9999 3.01361C42.9678 0.766962 41.1219 -1.02892 38.8754 -0.999649L38.9015 1.00018C40.0446 0.985288 40.9838 1.89913 41.0001 3.04214L42.9999 3.01361Z" fill="black" mask="url(#path-1-inside-1_331_379)"/>
<path d="M29.5629 35.7866H35.786L35.7886 24.7922C35.7886 19.3949 34.6256 15.2461 28.3183 15.2461C25.907 15.1566 23.642 16.4006 22.4238 18.4834H22.3402V15.7446H16.3661V35.7859H22.5891V25.8716C22.5891 23.2572 23.0851 20.7251 26.3262 20.7251C29.5214 20.7251 29.5629 23.7168 29.5629 26.0408V35.7866Z" fill="white"/>
<path d="M5.73236 9.39429C5.73272 11.3888 7.34986 13.0054 9.34434 13.0051C10.3021 13.0049 11.2206 12.6242 11.8978 11.9468C12.5749 11.2694 12.9552 10.3508 12.955 9.39299C12.9547 7.39846 11.3375 5.78187 9.34305 5.78223C7.34856 5.78258 5.732 7.39976 5.73236 9.39429Z" fill="white"/>
<path d="M6.22632 35.7866H12.4559V15.7446H6.22632V35.7866Z" fill="white"/>
</svg>
