<svg width="55" height="34" viewBox="0 0 55 34" fill="none" xmlns="http://www.w3.org/2000/svg">
<path d="M53.1171 29.8728C53.4116 30.0995 53.6355 30.2799 53.7846 30.4104C53.0645 31.8183 51.4618 32.833 49.5491 32.833H4.85215C4.8016 32.833 4.74669 32.8277 4.67188 32.8179C4.65755 32.816 4.64153 32.8139 4.62423 32.8115C4.562 32.803 4.48326 32.7922 4.40753 32.7858L4.38638 32.784H4.36515H4.36102C4.34504 32.7807 4.32642 32.7776 4.30569 32.7754L4.30491 32.7753C3.35093 32.6752 2.49866 32.3341 1.81928 31.816L1.7139 31.7304C1.6749 31.6987 1.63798 31.6691 1.60288 31.6409C1.45539 31.5225 1.34024 31.4301 1.23919 31.3209L1.23913 31.3209C0.978181 31.039 0.760088 30.7268 0.591982 30.3925C0.741418 30.2623 0.965377 30.0823 1.25963 29.8561C1.87975 29.3795 2.78105 28.7217 3.87413 27.9418C6.05875 26.3833 8.99227 24.3495 11.9345 22.3294C14.8761 20.3096 17.8242 18.3051 20.037 16.8053C21.1434 16.0555 22.0659 15.4319 22.7117 14.9958C23.0346 14.7777 23.2884 14.6065 23.4614 14.4899L23.6589 14.3567L23.7096 14.3226L23.7224 14.314L23.7256 14.3119L23.7264 14.3113C23.7265 14.3112 23.7266 14.3111 23.4495 13.8996L23.7266 14.3111L23.7273 14.3107C25.1691 13.3368 26.1875 12.9196 27.1604 12.9229C28.1362 12.9262 29.1646 13.3525 30.6268 14.3141L30.6395 14.3227L30.6902 14.3569L30.888 14.4901C31.0612 14.6068 31.3154 14.7782 31.6388 14.9964C32.2855 15.4329 33.2093 16.057 34.3173 16.8075C36.5332 18.3086 39.4854 20.315 42.4308 22.3367C45.3769 24.3589 48.314 26.3948 50.5008 27.9555C51.5949 28.7365 52.4969 29.3953 53.1171 29.8728ZM54.013 30.0037L54.0125 30.0043C54.0138 30.0029 54.0148 30.0019 54.0152 30.0015L54.015 30.0016L54.0143 30.0024L54.013 30.0037Z" fill="#96A9B2" stroke="black"/>
<path d="M27.485 11.6521L27.2071 11.4663L26.9293 11.6521L0.625 29.2336V4.52539C0.625 2.3546 2.61863 0.5 5.2029 0.5H49.2113C51.7956 0.5 53.7892 2.3546 53.7892 4.52539V29.2336L27.485 11.6521Z" fill="#B9C5C6" stroke="black"/>
<path d="M1.6729 3.42513C1.38605 3.20432 1.16739 3.02824 1.02078 2.90021C1.72974 1.51946 3.30329 0.524414 5.1814 0.524414H49.1896C49.2389 0.524414 49.2925 0.529541 49.3661 0.539151C49.3802 0.540989 49.396 0.54314 49.413 0.545464C49.4743 0.553826 49.552 0.564436 49.6267 0.570801L49.6479 0.572605H49.6692H49.6725C49.688 0.57577 49.7059 0.578791 49.7258 0.580957L49.7276 0.581142C50.6645 0.679453 51.5016 1.01413 52.1687 1.52237L52.2746 1.60833C52.3128 1.63936 52.3489 1.66838 52.3833 1.69596C52.5288 1.81272 52.6418 1.90347 52.741 2.01069L52.7411 2.01078C52.9961 2.28633 53.2095 2.59129 53.3743 2.91757C53.2274 3.04537 53.0085 3.22115 52.7218 3.44153C52.1113 3.91067 51.224 4.55831 50.1478 5.32613C47.9969 6.86067 45.1086 8.86304 42.2118 10.852C39.3155 12.8406 36.4129 14.8143 34.2342 16.2909C33.1449 17.0292 32.2366 17.6432 31.6007 18.0726C31.2828 18.2873 31.0329 18.4558 30.8626 18.5707L30.6681 18.7018L30.6183 18.7353L30.6057 18.7438L30.6025 18.746L30.6017 18.7465C30.6015 18.7466 30.6014 18.7467 30.8722 19.1488L30.6014 18.7467L30.6008 18.7471C29.1816 19.7058 28.1804 20.1155 27.2249 20.1122C26.2665 20.1089 25.2555 19.6903 23.8161 18.7436L23.8037 18.7352L23.7538 18.7016L23.5591 18.5705C23.3885 18.4555 23.1382 18.2868 22.8198 18.072C22.183 17.6422 21.2735 17.0277 20.1826 16.2888C18.0009 14.8109 15.0942 12.8354 12.1942 10.8448C9.29352 8.85381 6.40173 6.84926 4.24872 5.31264C3.17143 4.54377 2.28347 3.89516 1.6729 3.42513ZM52.3519 1.64786C52.3513 1.64756 52.3503 1.64707 52.3491 1.64642L52.3513 1.64757C52.3538 1.64884 52.3531 1.64848 52.3519 1.64786Z" fill="#DCE2E2" stroke="black"/>
</svg>
